<svg width="181" height="177" viewBox="0 0 181 177" fill="currentColor" xmlns="http://www.w3.org/2000/svg">
<path d="M90.0585 0.5C40.3635 0.5 0.0585108 40.7975 0.0585108 90.5C0.0585108 130.265 25.8435 164 61.611 175.902C66.1035 176.735 67.5585 173.945 67.5585 171.575V154.82C42.5235 160.265 37.311 144.2 37.311 144.2C33.216 133.797 27.3135 131.03 27.3135 131.03C19.146 125.442 27.936 125.562 27.936 125.562C36.9735 126.192 41.7285 134.84 41.7285 134.84C49.7535 148.595 62.781 144.62 67.9185 142.318C68.721 136.505 71.0535 132.53 73.6335 130.288C53.646 128 32.631 120.282 32.631 85.805C32.631 75.9725 36.1485 67.9475 41.901 61.6475C40.971 59.375 37.8885 50.2175 42.7785 37.8275C42.7785 37.8275 50.3385 35.4125 67.536 47.0525C74.7135 45.0575 82.4085 44.06 90.0585 44.0225C97.7085 44.06 105.411 45.0575 112.604 47.0525C129.786 35.4125 137.331 37.8275 137.331 37.8275C142.229 50.225 139.146 59.3825 138.216 61.6475C143.991 67.9475 147.479 75.98 147.479 85.805C147.479 120.372 126.426 127.985 106.386 130.213C109.611 133.003 112.559 138.478 112.559 146.878V171.575C112.559 173.967 113.999 176.78 118.566 175.895C154.304 163.977 180.059 130.25 180.059 90.5C180.059 40.7975 139.761 0.5 90.0585 0.5Z"/>
</svg>
