<svg width="160" height="161" viewBox="0 0 160 161" fill="currentColor" xmlns="http://www.w3.org/2000/svg">
<path d="M137.231 0.780884H22.7692C9.84614 0.780884 0 10.627 0 23.5501V138.012C0 150.935 9.84614 160.781 22.7692 160.781H137.231C150.154 160.781 160 150.935 160 138.012V23.5501C160 10.627 150.154 0.780884 137.231 0.780884ZM80 128.781C106.462 128.781 128 107.858 128 82.627C128 78.3193 127.385 73.3963 126.154 69.704H139.692V134.935C139.692 138.012 137.231 141.089 133.538 141.089H26.4616C23.3846 141.089 20.3077 138.627 20.3077 134.935V69.0886H34.4616C33.2308 73.3963 32.6154 77.704 32.6154 82.0117C32 107.858 53.5385 128.781 80 128.781ZM80 110.319C62.7692 110.319 49.2308 96.7809 49.2308 80.1655C49.2308 63.5501 62.7692 50.0117 80 50.0117C97.2308 50.0117 110.769 63.5501 110.769 80.1655C110.769 97.3963 97.2308 110.319 80 110.319ZM139.077 44.4732C139.077 48.1655 136 51.2424 132.308 51.2424H115.077C111.385 51.2424 108.308 48.1655 108.308 44.4732V27.8578C108.308 24.1655 111.385 21.0886 115.077 21.0886H132.308C136 21.0886 139.077 24.1655 139.077 27.8578V44.4732Z"/>
</svg>
