<svg width="201" height="144" viewBox="0 0 201 144" fill="none" xmlns="http://www.w3.org/2000/svg">
<path d="M147.881 143.781C147.881 143.781 141.717 136.461 136.58 129.991C159.011 123.693 167.573 109.733 167.573 109.733C160.553 114.33 153.874 117.565 147.881 119.778C139.32 123.353 131.101 125.736 123.053 127.098C106.614 130.162 91.5456 129.311 78.7034 126.928C68.9428 125.055 60.5524 122.331 53.5318 119.607C49.5935 118.075 45.3126 116.203 41.0318 113.82C40.5181 113.478 40.0044 113.308 39.4908 112.968C39.1483 112.798 38.9771 112.628 38.8058 112.457C35.7236 110.755 34.0113 109.563 34.0113 109.563C34.0113 109.563 42.2305 123.182 63.9771 129.651C58.8401 136.12 52.5044 143.781 52.5044 143.781C14.662 142.589 0.278412 117.905 0.278412 117.905C0.278412 63.0888 24.9359 18.6571 24.9359 18.6571C49.5935 0.27159 73.0527 0.782298 73.0527 0.782298L74.7648 2.82513C43.9428 11.6774 29.7305 25.1261 29.7305 25.1261C29.7305 25.1261 33.4976 23.0832 39.8332 20.1893C58.1551 12.1881 72.7098 9.97507 78.7034 9.46434C79.7306 9.2941 80.587 9.12386 81.6141 9.12386C92.0591 7.76199 103.874 7.42152 116.203 8.78338C132.47 10.656 149.936 15.4227 167.744 25.1261C167.744 25.1261 154.217 12.3584 125.107 3.50608L127.504 0.782298C127.504 0.782298 150.963 0.27159 175.621 18.6571C175.621 18.6571 200.278 63.0888 200.278 117.905C200.278 117.905 185.723 142.589 147.881 143.781ZM68.2578 64.2805C58.4976 64.2805 50.7921 72.7921 50.7921 83.1768C50.7921 93.5614 58.6688 102.073 68.2578 102.073C78.0184 102.073 85.7234 93.5614 85.7234 83.1768C85.8948 72.7921 78.0184 64.2805 68.2578 64.2805ZM130.758 64.2805C120.998 64.2805 113.292 72.7921 113.292 83.1768C113.292 93.5614 121.169 102.073 130.758 102.073C140.518 102.073 148.223 93.5614 148.223 83.1768C148.223 72.7921 140.518 64.2805 130.758 64.2805Z" fill="white"/>
</svg>
