<svg width="375" height="375" viewBox="0 0 375 375" fill="none" xmlns="http://www.w3.org/2000/svg">
<path fill-rule="evenodd" clip-rule="evenodd" d="M187.5 375C291.053 375 375 291.053 375 187.5C375 83.9466 291.053 0 187.5 0C83.9466 0 0 83.9466 0 187.5C0 291.053 83.9466 375 187.5 375ZM186.513 294.079C245.92 294.079 294.079 245.92 294.079 186.513C294.079 127.106 245.92 78.9474 186.513 78.9474C127.106 78.9474 78.9474 127.106 78.9474 186.513C78.9474 245.92 127.106 294.079 186.513 294.079Z" fill="url(#paint0_radial)"/>
<path fill-rule="evenodd" clip-rule="evenodd" d="M291.472 210.156C280.699 258.189 237.797 294.079 186.513 294.079C127.106 294.079 78.9474 245.92 78.9474 186.513C78.9474 178.509 79.8216 170.709 81.4797 163.204L4.60488 146.016C1.59091 159.36 0 173.244 0 187.5C0 291.053 83.9466 375 187.5 375C277.198 375 352.185 312.014 370.646 227.858L291.472 210.156Z" fill="url(#paint1_radial)"/>
<path fill-rule="evenodd" clip-rule="evenodd" d="M233.028 89.4974L267.158 17.7136C330.881 47.6624 375 112.429 375 187.5C375 289.685 293.257 372.778 191.594 374.956V293.961C248.642 291.308 294.079 244.217 294.079 186.513C294.079 143.768 269.145 106.846 233.028 89.4974Z" fill="url(#paint2_radial)"/>
<path d="M136.479 228.847H132.56V239.508H129.923V228.847H126.056V226.711H136.479V228.847ZM148.257 233.399C148.257 234.659 148.034 235.764 147.589 236.713C147.144 237.662 146.505 238.395 145.673 238.91C144.847 239.426 143.897 239.684 142.825 239.684C141.765 239.684 140.818 239.429 139.986 238.919C139.154 238.409 138.51 237.683 138.053 236.739C137.596 235.79 137.364 234.7 137.358 233.47V232.837C137.358 231.577 137.584 230.47 138.035 229.515C138.492 228.554 139.134 227.818 139.96 227.309C140.792 226.793 141.741 226.535 142.808 226.535C143.874 226.535 144.82 226.793 145.646 227.309C146.479 227.818 147.12 228.554 147.571 229.515C148.028 230.47 148.257 231.574 148.257 232.828V233.399ZM145.585 232.819C145.585 231.478 145.345 230.458 144.864 229.761C144.384 229.063 143.698 228.715 142.808 228.715C141.923 228.715 141.24 229.061 140.76 229.752C140.279 230.438 140.036 231.445 140.03 232.775V233.399C140.03 234.706 140.271 235.72 140.751 236.44C141.231 237.161 141.923 237.521 142.825 237.521C143.71 237.521 144.39 237.176 144.864 236.484C145.339 235.787 145.579 234.773 145.585 233.443V232.819ZM159.05 228.847H155.13V239.508H152.493V228.847H148.626V226.711H159.05V228.847ZM166.731 236.871H162.108L161.229 239.508H158.426L163.189 226.711H165.633L170.423 239.508H167.619L166.731 236.871ZM162.82 234.735H166.02L164.411 229.945L162.82 234.735ZM174.255 237.39H179.854V239.508H171.618V226.711H174.255V237.39ZM192.492 236.15C192.492 235.652 192.316 235.271 191.965 235.008C191.613 234.738 190.98 234.457 190.066 234.164C189.152 233.865 188.429 233.572 187.896 233.285C186.442 232.5 185.716 231.442 185.716 230.112C185.716 229.421 185.909 228.806 186.296 228.267C186.688 227.722 187.248 227.297 187.975 226.992C188.707 226.688 189.527 226.535 190.436 226.535C191.35 226.535 192.164 226.702 192.879 227.036C193.594 227.364 194.147 227.83 194.54 228.434C194.938 229.037 195.138 229.723 195.138 230.49H192.501C192.501 229.904 192.316 229.45 191.947 229.128C191.578 228.8 191.06 228.636 190.392 228.636C189.747 228.636 189.246 228.773 188.889 229.049C188.531 229.318 188.353 229.676 188.353 230.121C188.353 230.537 188.561 230.886 188.977 231.167C189.398 231.448 190.017 231.712 190.831 231.958C192.331 232.409 193.424 232.969 194.109 233.637C194.795 234.305 195.138 235.137 195.138 236.133C195.138 237.24 194.719 238.11 193.881 238.743C193.043 239.37 191.915 239.684 190.497 239.684C189.513 239.684 188.616 239.505 187.808 239.147C186.999 238.784 186.381 238.289 185.953 237.662C185.531 237.035 185.32 236.309 185.32 235.482H187.966C187.966 236.895 188.81 237.601 190.497 237.601C191.124 237.601 191.613 237.475 191.965 237.223C192.316 236.965 192.492 236.607 192.492 236.15ZM206.616 226.711V235.14C206.616 236.54 206.177 237.647 205.298 238.462C204.425 239.276 203.229 239.684 201.712 239.684C200.218 239.684 199.031 239.288 198.152 238.497C197.273 237.706 196.825 236.619 196.808 235.236V226.711H199.444V235.157C199.444 235.995 199.644 236.607 200.042 236.994C200.446 237.375 201.003 237.565 201.712 237.565C203.194 237.565 203.947 236.786 203.971 235.228V226.711H206.616ZM211.415 234.999V239.508H208.778V226.711H213.771C214.731 226.711 215.575 226.887 216.302 227.238C217.034 227.59 217.597 228.091 217.989 228.741C218.382 229.386 218.578 230.121 218.578 230.947C218.578 232.201 218.147 233.191 217.286 233.918C216.431 234.639 215.244 234.999 213.727 234.999H211.415ZM211.415 232.863H213.771C214.468 232.863 214.998 232.699 215.361 232.371C215.73 232.043 215.915 231.574 215.915 230.965C215.915 230.338 215.73 229.831 215.361 229.444C214.992 229.058 214.482 228.858 213.832 228.847H211.415V232.863ZM223.034 234.999V239.508H220.397V226.711H225.39C226.351 226.711 227.194 226.887 227.921 227.238C228.653 227.59 229.216 228.091 229.608 228.741C230.001 229.386 230.197 230.121 230.197 230.947C230.197 232.201 229.767 233.191 228.905 233.918C228.05 234.639 226.863 234.999 225.346 234.999H223.034ZM223.034 232.863H225.39C226.087 232.863 226.617 232.699 226.98 232.371C227.35 232.043 227.534 231.574 227.534 230.965C227.534 230.338 227.35 229.831 226.98 229.444C226.611 229.058 226.102 228.858 225.451 228.847H223.034V232.863ZM234.653 237.39H240.252V239.508H232.017V226.711H234.653V237.39ZM243.724 232.477L246.387 226.711H249.27L245.068 234.867V239.508H242.388V234.867L238.187 226.711H241.078L243.724 232.477ZM172.497 255.691H173.947V257.739H172.497V260.508H169.957V257.739H164.71L164.596 256.14L169.931 247.711H172.497V255.691ZM167.127 255.691H169.957V251.174L169.79 251.464L167.127 255.691ZM184.09 260.508H175.318V258.768L179.458 254.355C180.026 253.734 180.445 253.192 180.715 252.729C180.99 252.267 181.128 251.827 181.128 251.411C181.128 250.843 180.984 250.397 180.697 250.075C180.41 249.747 180 249.583 179.467 249.583C178.893 249.583 178.438 249.782 178.104 250.181C177.776 250.573 177.612 251.092 177.612 251.736H175.063C175.063 250.957 175.248 250.245 175.617 249.601C175.992 248.956 176.52 248.452 177.199 248.089C177.879 247.72 178.649 247.535 179.511 247.535C180.829 247.535 181.852 247.852 182.578 248.484C183.311 249.117 183.677 250.011 183.677 251.165C183.677 251.798 183.513 252.442 183.185 253.099C182.856 253.755 182.294 254.52 181.497 255.393L178.588 258.46H184.09V260.508ZM194.268 255.217C194.268 256.986 193.901 258.34 193.169 259.277C192.437 260.215 191.364 260.684 189.952 260.684C188.558 260.684 187.491 260.224 186.753 259.304C186.015 258.384 185.637 257.065 185.619 255.349V252.993C185.619 251.206 185.988 249.85 186.727 248.924C187.471 247.998 188.54 247.535 189.935 247.535C191.329 247.535 192.396 247.995 193.134 248.915C193.872 249.829 194.25 251.145 194.268 252.861V255.217ZM191.728 252.633C191.728 251.572 191.581 250.802 191.288 250.321C191.001 249.835 190.55 249.592 189.935 249.592C189.337 249.592 188.895 249.823 188.607 250.286C188.326 250.743 188.177 251.461 188.159 252.439V255.551C188.159 256.594 188.3 257.37 188.581 257.88C188.868 258.384 189.325 258.636 189.952 258.636C190.573 258.636 191.021 258.393 191.297 257.906C191.572 257.42 191.716 256.676 191.728 255.674V252.633ZM199.708 247.711L202.995 256.992L206.265 247.711H209.728V260.508H207.082V257.01L207.346 250.972L203.892 260.508H202.081L198.636 250.98L198.899 257.01V260.508H196.263V247.711H199.708Z" fill="#00568E"/>
<path opacity="0.6" d="M322.539 186.578H324.473V189.309H322.539V193H319.152V189.309H312.156L312.004 187.176L319.117 175.938H322.539V186.578ZM315.379 186.578H319.152V180.555L318.93 180.941L315.379 186.578ZM337.785 185.945C337.785 188.305 337.297 190.109 336.32 191.359C335.344 192.609 333.914 193.234 332.031 193.234C330.172 193.234 328.75 192.621 327.766 191.395C326.781 190.168 326.277 188.41 326.254 186.121V182.98C326.254 180.598 326.746 178.789 327.73 177.555C328.723 176.32 330.148 175.703 332.008 175.703C333.867 175.703 335.289 176.316 336.273 177.543C337.258 178.762 337.762 180.516 337.785 182.805V185.945ZM334.398 182.5C334.398 181.086 334.203 180.059 333.812 179.418C333.43 178.77 332.828 178.445 332.008 178.445C331.211 178.445 330.621 178.754 330.238 179.371C329.863 179.98 329.664 180.938 329.641 182.242V186.391C329.641 187.781 329.828 188.816 330.203 189.496C330.586 190.168 331.195 190.504 332.031 190.504C332.859 190.504 333.457 190.18 333.824 189.531C334.191 188.883 334.383 187.891 334.398 186.555V182.5ZM340.035 179.219C340.035 178.172 340.375 177.324 341.055 176.676C341.734 176.02 342.625 175.691 343.727 175.691C344.844 175.691 345.742 176.016 346.422 176.664C347.102 177.305 347.441 178.176 347.441 179.277V180.121C347.441 181.176 347.102 182.023 346.422 182.664C345.742 183.305 344.852 183.625 343.75 183.625C342.641 183.625 341.742 183.305 341.055 182.664C340.375 182.016 340.035 181.145 340.035 180.051V179.219ZM342.285 180.121C342.285 180.59 342.418 180.969 342.684 181.258C342.957 181.539 343.312 181.68 343.75 181.68C344.188 181.68 344.535 181.535 344.793 181.246C345.051 180.957 345.18 180.57 345.18 180.086V179.219C345.18 178.75 345.051 178.371 344.793 178.082C344.535 177.793 344.18 177.648 343.727 177.648C343.297 177.648 342.949 177.793 342.684 178.082C342.418 178.363 342.285 178.758 342.285 179.266V180.121ZM348.191 188.816C348.191 187.762 348.535 186.914 349.223 186.273C349.91 185.625 350.801 185.301 351.895 185.301C353.004 185.301 353.898 185.621 354.578 186.262C355.266 186.895 355.609 187.77 355.609 188.887V189.73C355.609 190.777 355.273 191.625 354.602 192.273C353.93 192.914 353.035 193.234 351.918 193.234C350.793 193.234 349.891 192.91 349.211 192.262C348.531 191.613 348.191 190.754 348.191 189.684V188.816ZM350.441 189.73C350.441 190.16 350.582 190.527 350.863 190.832C351.145 191.137 351.496 191.289 351.918 191.289C352.871 191.289 353.348 190.762 353.348 189.707V188.816C353.348 188.348 353.215 187.973 352.949 187.691C352.684 187.402 352.332 187.258 351.895 187.258C351.457 187.258 351.105 187.402 350.84 187.691C350.574 187.973 350.441 188.359 350.441 188.852V189.73ZM344.418 191.723L342.766 190.832L351.098 177.496L352.75 178.387L344.418 191.723ZM304.65 205.356H303.017V209H300.966V199.047H304.664C305.84 199.047 306.747 199.309 307.385 199.833C308.023 200.357 308.342 201.098 308.342 202.055C308.342 202.734 308.194 203.301 307.897 203.757C307.606 204.208 307.161 204.568 306.564 204.837L308.718 208.904V209H306.517L304.65 205.356ZM303.017 203.695H304.671C305.186 203.695 305.585 203.565 305.867 203.306C306.15 203.041 306.291 202.679 306.291 202.219C306.291 201.749 306.157 201.38 305.888 201.111C305.623 200.842 305.215 200.708 304.664 200.708H303.017V203.695ZM316.396 204.687H312.458V207.353H317.079V209H310.407V199.047H317.065V200.708H312.458V203.08H316.396V204.687ZM326.534 206.129L327.874 199.047H329.918L327.71 209H325.646L324.025 202.342L322.405 209H320.341L318.133 199.047H320.177L321.523 206.115L323.164 199.047H324.9L326.534 206.129ZM336.851 206.949H333.255L332.571 209H330.391L334.096 199.047H335.996L339.722 209H337.541L336.851 206.949ZM333.809 205.288H336.297L335.046 201.562L333.809 205.288ZM344.836 205.356H343.202V209H341.151V199.047H344.85C346.025 199.047 346.932 199.309 347.57 199.833C348.208 200.357 348.527 201.098 348.527 202.055C348.527 202.734 348.379 203.301 348.083 203.757C347.791 204.208 347.347 204.568 346.75 204.837L348.903 208.904V209H346.702L344.836 205.356ZM343.202 203.695H344.856C345.371 203.695 345.77 203.565 346.053 203.306C346.335 203.041 346.477 202.679 346.477 202.219C346.477 201.749 346.342 201.38 346.073 201.111C345.809 200.842 345.401 200.708 344.85 200.708H343.202V203.695ZM350.593 209V199.047H353.655C354.53 199.047 355.312 199.245 356 199.642C356.693 200.034 357.233 200.594 357.62 201.323C358.007 202.048 358.201 202.873 358.201 203.798V204.256C358.201 205.181 358.01 206.004 357.627 206.724C357.249 207.444 356.713 208.002 356.021 208.398C355.328 208.795 354.546 208.995 353.676 209H350.593ZM352.644 200.708V207.353H353.635C354.437 207.353 355.05 207.09 355.474 206.566C355.897 206.042 356.114 205.293 356.123 204.317V203.791C356.123 202.779 355.913 202.014 355.494 201.494C355.075 200.97 354.462 200.708 353.655 200.708H352.644ZM365.359 206.389C365.359 206.001 365.223 205.705 364.949 205.5C364.676 205.29 364.184 205.072 363.473 204.844C362.762 204.611 362.199 204.383 361.784 204.16C360.654 203.549 360.089 202.727 360.089 201.692C360.089 201.155 360.239 200.676 360.54 200.257C360.845 199.833 361.281 199.503 361.846 199.266C362.415 199.029 363.053 198.91 363.76 198.91C364.471 198.91 365.104 199.04 365.66 199.3C366.216 199.555 366.647 199.917 366.952 200.387C367.262 200.856 367.417 201.389 367.417 201.986H365.366C365.366 201.531 365.223 201.177 364.936 200.927C364.648 200.672 364.245 200.544 363.726 200.544C363.224 200.544 362.835 200.651 362.557 200.865C362.279 201.075 362.14 201.353 362.14 201.699C362.14 202.023 362.301 202.294 362.625 202.513C362.953 202.731 363.434 202.937 364.067 203.128C365.234 203.479 366.084 203.914 366.617 204.434C367.15 204.953 367.417 205.6 367.417 206.375C367.417 207.236 367.091 207.913 366.439 208.405C365.788 208.893 364.91 209.137 363.808 209.137C363.042 209.137 362.345 208.998 361.716 208.72C361.087 208.437 360.606 208.052 360.273 207.564C359.945 207.077 359.781 206.512 359.781 205.869H361.839C361.839 206.967 362.495 207.517 363.808 207.517C364.295 207.517 364.676 207.419 364.949 207.223C365.223 207.022 365.359 206.744 365.359 206.389Z" fill="white"/>
<path opacity="0.6" d="M60.4648 266.969H62.2695C63.1289 266.969 63.7656 266.754 64.1797 266.324C64.5938 265.895 64.8008 265.324 64.8008 264.613C64.8008 263.926 64.5938 263.391 64.1797 263.008C63.7734 262.625 63.2109 262.434 62.4922 262.434C61.8438 262.434 61.3008 262.613 60.8633 262.973C60.4258 263.324 60.207 263.785 60.207 264.355H56.8203C56.8203 263.465 57.0586 262.668 57.5352 261.965C58.0195 261.254 58.6914 260.699 59.5508 260.301C60.418 259.902 61.3711 259.703 62.4102 259.703C64.2148 259.703 65.6289 260.137 66.6523 261.004C67.6758 261.863 68.1875 263.051 68.1875 264.566C68.1875 265.348 67.9492 266.066 67.4727 266.723C66.9961 267.379 66.3711 267.883 65.5977 268.234C66.5586 268.578 67.2734 269.094 67.7422 269.781C68.2188 270.469 68.457 271.281 68.457 272.219C68.457 273.734 67.9023 274.949 66.793 275.863C65.6914 276.777 64.2305 277.234 62.4102 277.234C60.707 277.234 59.3125 276.785 58.2266 275.887C57.1484 274.988 56.6094 273.801 56.6094 272.324H59.9961C59.9961 272.965 60.2344 273.488 60.7109 273.895C61.1953 274.301 61.7891 274.504 62.4922 274.504C63.2969 274.504 63.9258 274.293 64.3789 273.871C64.8398 273.441 65.0703 272.875 65.0703 272.172C65.0703 270.469 64.1328 269.617 62.2578 269.617H60.4648V266.969ZM82.2852 269.945C82.2852 272.305 81.7969 274.109 80.8203 275.359C79.8438 276.609 78.4141 277.234 76.5312 277.234C74.6719 277.234 73.25 276.621 72.2656 275.395C71.2812 274.168 70.7773 272.41 70.7539 270.121V266.98C70.7539 264.598 71.2461 262.789 72.2305 261.555C73.2227 260.32 74.6484 259.703 76.5078 259.703C78.3672 259.703 79.7891 260.316 80.7734 261.543C81.7578 262.762 82.2617 264.516 82.2852 266.805V269.945ZM78.8984 266.5C78.8984 265.086 78.7031 264.059 78.3125 263.418C77.9297 262.77 77.3281 262.445 76.5078 262.445C75.7109 262.445 75.1211 262.754 74.7383 263.371C74.3633 263.98 74.1641 264.938 74.1406 266.242V270.391C74.1406 271.781 74.3281 272.816 74.7031 273.496C75.0859 274.168 75.6953 274.504 76.5312 274.504C77.3594 274.504 77.957 274.18 78.3242 273.531C78.6914 272.883 78.8828 271.891 78.8984 270.555V266.5ZM84.5352 263.219C84.5352 262.172 84.875 261.324 85.5547 260.676C86.2344 260.02 87.125 259.691 88.2266 259.691C89.3438 259.691 90.2422 260.016 90.9219 260.664C91.6016 261.305 91.9414 262.176 91.9414 263.277V264.121C91.9414 265.176 91.6016 266.023 90.9219 266.664C90.2422 267.305 89.3516 267.625 88.25 267.625C87.1406 267.625 86.2422 267.305 85.5547 266.664C84.875 266.016 84.5352 265.145 84.5352 264.051V263.219ZM86.7852 264.121C86.7852 264.59 86.918 264.969 87.1836 265.258C87.457 265.539 87.8125 265.68 88.25 265.68C88.6875 265.68 89.0352 265.535 89.293 265.246C89.5508 264.957 89.6797 264.57 89.6797 264.086V263.219C89.6797 262.75 89.5508 262.371 89.293 262.082C89.0352 261.793 88.6797 261.648 88.2266 261.648C87.7969 261.648 87.4492 261.793 87.1836 262.082C86.918 262.363 86.7852 262.758 86.7852 263.266V264.121ZM92.6914 272.816C92.6914 271.762 93.0352 270.914 93.7227 270.273C94.4102 269.625 95.3008 269.301 96.3945 269.301C97.5039 269.301 98.3984 269.621 99.0781 270.262C99.7656 270.895 100.109 271.77 100.109 272.887V273.73C100.109 274.777 99.7734 275.625 99.1016 276.273C98.4297 276.914 97.5352 277.234 96.418 277.234C95.293 277.234 94.3906 276.91 93.7109 276.262C93.0312 275.613 92.6914 274.754 92.6914 273.684V272.816ZM94.9414 273.73C94.9414 274.16 95.082 274.527 95.3633 274.832C95.6445 275.137 95.9961 275.289 96.418 275.289C97.3711 275.289 97.8477 274.762 97.8477 273.707V272.816C97.8477 272.348 97.7148 271.973 97.4492 271.691C97.1836 271.402 96.832 271.258 96.3945 271.258C95.957 271.258 95.6055 271.402 95.3398 271.691C95.0742 271.973 94.9414 272.359 94.9414 272.852V273.73ZM88.918 275.723L87.2656 274.832L95.5977 261.496L97.25 262.387L88.918 275.723ZM46.9072 291.353H51.2617V293H44.8564V283.047H46.9072V291.353ZM55.125 293H53.0742V283.047H55.125V293ZM65.6943 288.249C65.6943 289.179 65.5439 289.988 65.2432 290.676C64.9424 291.359 64.5254 291.909 63.9922 292.323L65.6465 293.622L64.3408 294.777L62.2217 293.075C61.9801 293.116 61.7295 293.137 61.4697 293.137C60.6449 293.137 59.9089 292.938 59.2617 292.542C58.6146 292.146 58.1133 291.58 57.7578 290.847C57.4023 290.108 57.2223 289.261 57.2178 288.304V287.812C57.2178 286.832 57.3932 285.97 57.7441 285.228C58.0996 284.48 58.5986 283.908 59.2412 283.512C59.8883 283.111 60.6266 282.91 61.4561 282.91C62.2855 282.91 63.0215 283.111 63.6641 283.512C64.3112 283.908 64.8102 284.48 65.1611 285.228C65.5166 285.97 65.6943 286.829 65.6943 287.805V288.249ZM63.6162 287.798C63.6162 286.754 63.4294 285.961 63.0557 285.419C62.682 284.877 62.1488 284.605 61.4561 284.605C60.7679 284.605 60.237 284.874 59.8633 285.412C59.4896 285.945 59.3005 286.729 59.2959 287.764V288.249C59.2959 289.265 59.4827 290.054 59.8564 290.614C60.2301 291.175 60.7679 291.455 61.4697 291.455C62.1579 291.455 62.6865 291.186 63.0557 290.648C63.4248 290.106 63.6117 289.318 63.6162 288.283V287.798ZM75.2314 283.047V289.603C75.2314 290.692 74.8896 291.553 74.2061 292.187C73.527 292.82 72.5973 293.137 71.417 293.137C70.2549 293.137 69.332 292.829 68.6484 292.214C67.9648 291.599 67.6162 290.753 67.6025 289.678V283.047H69.6533V289.616C69.6533 290.268 69.8083 290.744 70.1182 291.045C70.4326 291.341 70.8656 291.489 71.417 291.489C72.57 291.489 73.1556 290.883 73.1738 289.671V283.047H75.2314ZM79.5938 293H77.543V283.047H79.5938V293ZM82.001 293V283.047H85.0635C85.9385 283.047 86.7201 283.245 87.4082 283.642C88.1009 284.034 88.641 284.594 89.0283 285.323C89.4157 286.048 89.6094 286.873 89.6094 287.798V288.256C89.6094 289.181 89.418 290.004 89.0352 290.724C88.6569 291.444 88.1214 292.002 87.4287 292.398C86.736 292.795 85.9544 292.995 85.084 293H82.001ZM84.0518 284.708V291.353H85.043C85.8451 291.353 86.458 291.09 86.8818 290.566C87.3057 290.042 87.5221 289.293 87.5312 288.317V287.791C87.5312 286.779 87.3216 286.014 86.9023 285.494C86.4831 284.97 85.8701 284.708 85.0635 284.708H84.0518ZM93.7871 293H91.7363V283.047H93.7871V293ZM103.481 284.708H100.433V293H98.3818V284.708H95.374V283.047H103.481V284.708ZM108.698 287.531L110.77 283.047H113.012L109.744 289.391V293H107.659V289.391L104.392 283.047H106.641L108.698 287.531Z" fill="white"/>
<path opacity="0.6" d="M97.4648 45.9688H99.2695C100.129 45.9688 100.766 45.7539 101.18 45.3242C101.594 44.8945 101.801 44.3242 101.801 43.6133C101.801 42.9258 101.594 42.3906 101.18 42.0078C100.773 41.625 100.211 41.4336 99.4922 41.4336C98.8438 41.4336 98.3008 41.6133 97.8633 41.9727C97.4258 42.3242 97.207 42.7852 97.207 43.3555H93.8203C93.8203 42.4648 94.0586 41.668 94.5352 40.9648C95.0195 40.2539 95.6914 39.6992 96.5508 39.3008C97.418 38.9023 98.3711 38.7031 99.4102 38.7031C101.215 38.7031 102.629 39.1367 103.652 40.0039C104.676 40.8633 105.188 42.0508 105.188 43.5664C105.188 44.3477 104.949 45.0664 104.473 45.7227C103.996 46.3789 103.371 46.8828 102.598 47.2344C103.559 47.5781 104.273 48.0938 104.742 48.7812C105.219 49.4688 105.457 50.2812 105.457 51.2188C105.457 52.7344 104.902 53.9492 103.793 54.8633C102.691 55.7773 101.23 56.2344 99.4102 56.2344C97.707 56.2344 96.3125 55.7852 95.2266 54.8867C94.1484 53.9883 93.6094 52.8008 93.6094 51.3242H96.9961C96.9961 51.9648 97.2344 52.4883 97.7109 52.8945C98.1953 53.3008 98.7891 53.5039 99.4922 53.5039C100.297 53.5039 100.926 53.293 101.379 52.8711C101.84 52.4414 102.07 51.875 102.07 51.1719C102.07 49.4688 101.133 48.6172 99.2578 48.6172H97.4648V45.9688ZM119.285 48.9453C119.285 51.3047 118.797 53.1094 117.82 54.3594C116.844 55.6094 115.414 56.2344 113.531 56.2344C111.672 56.2344 110.25 55.6211 109.266 54.3945C108.281 53.168 107.777 51.4102 107.754 49.1211V45.9805C107.754 43.5977 108.246 41.7891 109.23 40.5547C110.223 39.3203 111.648 38.7031 113.508 38.7031C115.367 38.7031 116.789 39.3164 117.773 40.543C118.758 41.7617 119.262 43.5156 119.285 45.8047V48.9453ZM115.898 45.5C115.898 44.0859 115.703 43.0586 115.312 42.418C114.93 41.7695 114.328 41.4453 113.508 41.4453C112.711 41.4453 112.121 41.7539 111.738 42.3711C111.363 42.9805 111.164 43.9375 111.141 45.2422V49.3906C111.141 50.7812 111.328 51.8164 111.703 52.4961C112.086 53.168 112.695 53.5039 113.531 53.5039C114.359 53.5039 114.957 53.1797 115.324 52.5312C115.691 51.8828 115.883 50.8906 115.898 49.5547V45.5ZM121.535 42.2188C121.535 41.1719 121.875 40.3242 122.555 39.6758C123.234 39.0195 124.125 38.6914 125.227 38.6914C126.344 38.6914 127.242 39.0156 127.922 39.6641C128.602 40.3047 128.941 41.1758 128.941 42.2773V43.1211C128.941 44.1758 128.602 45.0234 127.922 45.6641C127.242 46.3047 126.352 46.625 125.25 46.625C124.141 46.625 123.242 46.3047 122.555 45.6641C121.875 45.0156 121.535 44.1445 121.535 43.0508V42.2188ZM123.785 43.1211C123.785 43.5898 123.918 43.9688 124.184 44.2578C124.457 44.5391 124.812 44.6797 125.25 44.6797C125.688 44.6797 126.035 44.5352 126.293 44.2461C126.551 43.957 126.68 43.5703 126.68 43.0859V42.2188C126.68 41.75 126.551 41.3711 126.293 41.082C126.035 40.793 125.68 40.6484 125.227 40.6484C124.797 40.6484 124.449 40.793 124.184 41.082C123.918 41.3633 123.785 41.7578 123.785 42.2656V43.1211ZM129.691 51.8164C129.691 50.7617 130.035 49.9141 130.723 49.2734C131.41 48.625 132.301 48.3008 133.395 48.3008C134.504 48.3008 135.398 48.6211 136.078 49.2617C136.766 49.8945 137.109 50.7695 137.109 51.8867V52.7305C137.109 53.7773 136.773 54.625 136.102 55.2734C135.43 55.9141 134.535 56.2344 133.418 56.2344C132.293 56.2344 131.391 55.9102 130.711 55.2617C130.031 54.6133 129.691 53.7539 129.691 52.6836V51.8164ZM131.941 52.7305C131.941 53.1602 132.082 53.5273 132.363 53.832C132.645 54.1367 132.996 54.2891 133.418 54.2891C134.371 54.2891 134.848 53.7617 134.848 52.707V51.8164C134.848 51.3477 134.715 50.9727 134.449 50.6914C134.184 50.4023 133.832 50.2578 133.395 50.2578C132.957 50.2578 132.605 50.4023 132.34 50.6914C132.074 50.9727 131.941 51.3594 131.941 51.8516V52.7305ZM125.918 54.7227L124.266 53.832L132.598 40.4961L134.25 41.3867L125.918 54.7227ZM80.3184 68.6846C80.2409 69.7555 79.8444 70.5986 79.1289 71.2139C78.418 71.8291 77.4792 72.1367 76.3125 72.1367C75.0365 72.1367 74.0316 71.7083 73.2979 70.8516C72.5687 69.9902 72.2041 68.8099 72.2041 67.3105V66.7021C72.2041 65.7451 72.3727 64.902 72.71 64.1729C73.0472 63.4437 73.528 62.8854 74.1523 62.498C74.7812 62.1061 75.5104 61.9102 76.3398 61.9102C77.4883 61.9102 78.4134 62.2178 79.1152 62.833C79.8171 63.4482 80.2227 64.3118 80.332 65.4238H78.2812C78.2311 64.7812 78.0511 64.3164 77.7412 64.0293C77.4359 63.7376 76.9688 63.5918 76.3398 63.5918C75.6562 63.5918 75.1436 63.8379 74.8018 64.3301C74.4645 64.8177 74.2913 65.5765 74.2822 66.6064V67.3584C74.2822 68.4339 74.444 69.2201 74.7676 69.7168C75.0957 70.2135 75.6107 70.4619 76.3125 70.4619C76.946 70.4619 77.4176 70.3184 77.7275 70.0312C78.042 69.7396 78.222 69.2907 78.2676 68.6846H80.3184ZM90.3408 67.249C90.3408 68.2288 90.1676 69.0879 89.8213 69.8262C89.4749 70.5645 88.9782 71.1341 88.3311 71.5352C87.6885 71.9362 86.9502 72.1367 86.1162 72.1367C85.2913 72.1367 84.5553 71.9385 83.9082 71.542C83.2611 71.1455 82.7598 70.5804 82.4043 69.8467C82.0488 69.1084 81.8688 68.2607 81.8643 67.3037V66.8115C81.8643 65.8317 82.0397 64.9704 82.3906 64.2275C82.7461 63.4801 83.2451 62.9082 83.8877 62.5117C84.5348 62.1107 85.2731 61.9102 86.1025 61.9102C86.932 61.9102 87.668 62.1107 88.3105 62.5117C88.9577 62.9082 89.4567 63.4801 89.8076 64.2275C90.1631 64.9704 90.3408 65.8294 90.3408 66.8047V67.249ZM88.2627 66.7979C88.2627 65.7542 88.0758 64.9613 87.7021 64.4189C87.3285 63.8766 86.7952 63.6055 86.1025 63.6055C85.4144 63.6055 84.8835 63.8743 84.5098 64.4121C84.1361 64.9453 83.9469 65.7292 83.9424 66.7637V67.249C83.9424 68.2653 84.1292 69.0537 84.5029 69.6143C84.8766 70.1748 85.4144 70.4551 86.1162 70.4551C86.8044 70.4551 87.333 70.1862 87.7021 69.6484C88.0713 69.1061 88.2581 68.3177 88.2627 67.2832V66.7979ZM95.0107 62.0469L97.5674 69.2656L100.11 62.0469H102.804V72H100.746V69.2793L100.951 64.583L98.2646 72H96.8564L94.1768 64.5898L94.3818 69.2793V72H92.3311V62.0469H95.0107ZM107.774 62.0469L110.331 69.2656L112.874 62.0469H115.567V72H113.51V69.2793L113.715 64.583L111.028 72H109.62L106.94 64.5898L107.146 69.2793V72H105.095V62.0469H107.774ZM125.392 62.0469V68.6025C125.392 69.6917 125.05 70.5531 124.366 71.1865C123.687 71.82 122.757 72.1367 121.577 72.1367C120.415 72.1367 119.492 71.8291 118.809 71.2139C118.125 70.5986 117.776 69.7533 117.763 68.6777V62.0469H119.813V68.6162C119.813 69.2679 119.968 69.7441 120.278 70.0449C120.593 70.3411 121.026 70.4893 121.577 70.4893C122.73 70.4893 123.316 69.8831 123.334 68.6709V62.0469H125.392ZM135.667 72H133.616L129.624 65.4512V72H127.573V62.0469H129.624L133.623 68.6094V62.0469H135.667V72ZM140.139 72H138.088V62.0469H140.139V72ZM149.833 63.708H146.784V72H144.733V63.708H141.726V62.0469H149.833V63.708ZM155.05 66.5312L157.121 62.0469H159.363L156.096 68.3906V72H154.011V68.3906L150.743 62.0469H152.992L155.05 66.5312Z" fill="white"/>
<path d="M150.87 158.347C154.982 167.452 151.199 168.121 147.663 162.273C144.126 156.426 140.426 130.947 159.587 118.75C169 112.759 177.597 110.23 179.571 111.566C181.545 112.903 174.373 111.566 166.742 119.669C162.136 124.559 159.587 134.372 159.587 139.468C159.587 144.563 156.38 147.571 154.077 145.816C151.774 144.062 146.758 149.241 150.87 158.347Z" fill="#9C00D3"/>
<path d="M150.87 158.347C154.982 167.452 151.199 168.121 147.663 162.273C144.126 156.426 140.426 130.947 159.587 118.75C169 112.759 177.597 110.23 179.571 111.566C181.545 112.903 174.373 111.566 166.742 119.669C162.136 124.559 159.587 134.372 159.587 139.468C159.587 144.563 156.38 147.571 154.077 145.816C151.774 144.062 146.758 149.241 150.87 158.347Z" fill="white" fill-opacity="0.5"/>
<path d="M184.999 131.03C184.999 129.872 186.561 129.938 185.739 129.025C183.788 126.859 178.173 127.104 172.745 129.938C167.317 132.773 165.235 136.517 165.015 136.293C164.795 136.07 165.283 131.699 173.485 126.352C181.688 121.006 190.18 119.92 197.499 120.338C204.658 120.746 216.503 121.006 227.269 132.116C247.911 153.418 226.94 190.147 207.614 198.862C188.288 207.577 170.196 202.956 169.127 200.115C168.058 197.275 175.291 203.206 180.311 196.941C185.331 190.676 179.242 190.993 180.558 190.258C182.285 189.293 185.41 190.592 185.739 193.516C186.068 196.44 182.203 203.525 193.963 199.614C208.132 194.902 228.436 180.401 222.417 157.595C218.391 142.343 203.749 139.448 198.732 135.959C189.604 129.61 184.999 132.188 184.999 131.03Z" fill="#9C00D3"/>
<path d="M184.999 131.03C184.999 129.872 186.561 129.938 185.739 129.025C183.788 126.859 178.173 127.104 172.745 129.938C167.317 132.773 165.235 136.517 165.015 136.293C164.795 136.07 165.283 131.699 173.485 126.352C181.688 121.006 190.18 119.92 197.499 120.338C204.658 120.746 216.503 121.006 227.269 132.116C247.911 153.418 226.94 190.147 207.614 198.862C188.288 207.577 170.196 202.956 169.127 200.115C168.058 197.275 175.291 203.206 180.311 196.941C185.331 190.676 179.242 190.993 180.558 190.258C182.285 189.293 185.41 190.592 185.739 193.516C186.068 196.44 182.203 203.525 193.963 199.614C208.132 194.902 228.436 180.401 222.417 157.595C218.391 142.343 203.749 139.448 198.732 135.959C189.604 129.61 184.999 132.188 184.999 131.03Z" fill="white" fill-opacity="0.5"/>
<path fill-rule="evenodd" clip-rule="evenodd" d="M215.016 115.158C218.963 119.085 216.249 124.932 213.782 118.917C211.315 112.903 201.857 104.8 178.749 109.311C155.64 113.822 140.426 134.873 140.014 153.669C139.627 171.387 147.132 176.189 150.198 178.151C150.384 178.27 150.555 178.379 150.705 178.479C150.376 180.234 149.225 188.17 161.067 197.609C172.91 207.049 194.209 206.381 206.134 201.536C218.058 196.69 229.407 184.912 233.766 170.543C238.124 156.175 236.295 140.366 228.004 132.899C234.588 139.509 238.865 160.226 226.447 176.976C226.858 175.221 225.732 171.823 223.486 175.723C220.937 180.15 213.535 191.845 203.255 193.767C192.976 195.688 195.607 179.342 204.407 174.302C213.206 169.263 224.991 161.354 228.021 145.983C231.052 130.613 221.019 114.908 215.016 115.158ZM188.864 141.305C183.435 147.238 177.351 146.902 178.173 140.888C169.17 145.439 165.157 150.076 162.213 153.477C159.375 156.756 157.532 158.885 153.173 158.681C148.403 158.457 145.442 150.829 145.853 144.396C146.265 137.964 148.814 126.436 157.86 120.505C166.906 114.574 175.13 112.569 178.831 113.571C179.605 113.781 180.136 114 180.625 114.203C181.985 114.765 183.023 115.195 188.041 114.908C194.867 114.517 204.078 124.682 188.864 141.305ZM193.551 178.229C195.147 177.395 197.097 174.816 199.204 172.027C200.898 169.786 202.693 167.41 204.489 165.698C208.519 161.855 208.502 164.99 206.956 167.536C205.88 169.308 204.267 171.114 202.542 173.046C200.445 175.395 198.182 177.931 196.512 180.818C194.619 184.092 192.565 187.919 193.551 192.096C193.94 193.74 194.979 194.686 195.809 195.441C197.088 196.605 197.874 197.32 195.032 199.447C190.344 202.956 180.887 204.665 172.334 200.199C163.781 195.733 161.89 188.42 169.456 181.821C177.022 175.221 189.933 173.551 189.44 176.391C188.946 179.231 190.673 179.732 193.551 178.229Z" fill="#EF00C9"/>
<path fill-rule="evenodd" clip-rule="evenodd" d="M215.016 115.158C218.963 119.085 216.249 124.932 213.782 118.917C211.315 112.903 201.857 104.8 178.749 109.311C155.64 113.822 140.426 134.873 140.014 153.669C139.627 171.387 147.132 176.189 150.198 178.151C150.384 178.27 150.555 178.379 150.705 178.479C150.376 180.234 149.225 188.17 161.067 197.609C172.91 207.049 194.209 206.381 206.134 201.536C218.058 196.69 229.407 184.912 233.766 170.543C238.124 156.175 236.295 140.366 228.004 132.899C234.588 139.509 238.865 160.226 226.447 176.976C226.858 175.221 225.732 171.823 223.486 175.723C220.937 180.15 213.535 191.845 203.255 193.767C192.976 195.688 195.607 179.342 204.407 174.302C213.206 169.263 224.991 161.354 228.021 145.983C231.052 130.613 221.019 114.908 215.016 115.158ZM188.864 141.305C183.435 147.238 177.351 146.902 178.173 140.888C169.17 145.439 165.157 150.076 162.213 153.477C159.375 156.756 157.532 158.885 153.173 158.681C148.403 158.457 145.442 150.829 145.853 144.396C146.265 137.964 148.814 126.436 157.86 120.505C166.906 114.574 175.13 112.569 178.831 113.571C179.605 113.781 180.136 114 180.625 114.203C181.985 114.765 183.023 115.195 188.041 114.908C194.867 114.517 204.078 124.682 188.864 141.305ZM193.551 178.229C195.147 177.395 197.097 174.816 199.204 172.027C200.898 169.786 202.693 167.41 204.489 165.698C208.519 161.855 208.502 164.99 206.956 167.536C205.88 169.308 204.267 171.114 202.542 173.046C200.445 175.395 198.182 177.931 196.512 180.818C194.619 184.092 192.565 187.919 193.551 192.096C193.94 193.74 194.979 194.686 195.809 195.441C197.088 196.605 197.874 197.32 195.032 199.447C190.344 202.956 180.887 204.665 172.334 200.199C163.781 195.733 161.89 188.42 169.456 181.821C177.022 175.221 189.933 173.551 189.44 176.391C188.946 179.231 190.673 179.732 193.551 178.229Z" fill="white" fill-opacity="0.5"/>
<defs>
<radialGradient id="paint0_radial" cx="0" cy="0" r="1" gradientUnits="userSpaceOnUse" gradientTransform="translate(187.5 187.5) rotate(90) scale(187.5)">
<stop offset="0.0885417" stop-color="#806ED8"/>
<stop offset="0.9998" stop-color="#A193E2"/>
<stop offset="0.9999" stop-color="#735DD6"/>
</radialGradient>
<radialGradient id="paint1_radial" cx="0" cy="0" r="1" gradientUnits="userSpaceOnUse" gradientTransform="translate(57.2368 166.776) rotate(58.4028) scale(244.465 353.248)">
<stop stop-color="#FD9DFF"/>
<stop offset="1" stop-color="#D867DA"/>
</radialGradient>
<radialGradient id="paint2_radial" cx="0" cy="0" r="1" gradientUnits="userSpaceOnUse" gradientTransform="translate(191.447 195.395) rotate(-90) scale(414.474 293.479)">
<stop stop-color="#B4DBFF"/>
<stop offset="1" stop-color="#16ABFF"/>
</radialGradient>
</defs>
</svg>
